<?xml version="1.0" encoding="UTF-8" standalone="no"?>
<svg xmlns="http://www.w3.org/2000/svg" version="1.1" viewBox="0 0 256 256" height="256" width="256">
<path d="m190.54 75.842c-0.32739 0.38952-0.73633 0.87695-0.73633 0.87695l1.0488 0.86914-1.5215 1.8594 1.1367 1.0801 1.6484-1.8887 1.5742 1.3047-1.5234 1.8594 1.1348 1.0801 1.6524-1.8906 0.55078 0.45508 1.0215 0.84766-1.5254 1.8633 1.1367 1.0801 0.006-0.0059 0.0254 0.02344 1.6484-1.8887 0.97656 0.80859 0.57031 0.47461-1.5273 1.8633 0.53125 0.50586 0.006-0.0059 0.62891 0.59766 1.6523-1.8906 1.5586 1.293-1.5059 1.8379 0.0137 0.01172-0.0195 0.02344 1.1367 1.0801 1.6562-1.8926 1.5547 1.291-1.5078 1.8418 0.0137 0.01367-0.0176 0.02148 0.53125 0.50586 0.0195-0.02148 0.58985 0.56055 0.006-0.0059 0.0254 0.02344 1.6484-1.8887 0.97656 0.80859 0.57031 0.47461-1.5273 1.8633 0.53125 0.50586 0.006-0.0059 0.6289 0.59766 1.6524-1.8906 0.25585 0.21094s0.43132-0.12123 0.57032-0.28125c0.13663-0.15729 0.19531-0.59375 0.19531-0.59375l-0.13281-0.10938-0.13684-4.4414-4.9804-4.125-2.125 2.5664-3.7617-3.1055-0.002 0.002z" fill="#95bddb"/>
<path fill="#72a7cf" d="m188.11 22.279c-1.64-0.028-3.3 0.065-4.95 0.116-13.34 0.41-26.49 10.919-27.5 24.738-3.36 14.214-5.76 29.144-13.04 41.984-24.48 24.513-50.78 47.173-76.018 70.913-10.227 9.78-21.088 18.99-30.471 29.59-7.89 11.4 0.246 30.96 14.781 30.88 11.452-0.38 18.115-11.52 25.547-18.62 27.681-30.12 53.081-62.32 81.541-91.73 12.29-4.16 20.47-4.67 33.24-7.21 3.18-0.63 4.88-0.66 5.16-0.96 3.27-3.454 13.47-13.839 16-17.214 4.68-6.272 9.5-14.107 10.07-20.366 0.37-2.98-2.55-1.097-2.55-1.097l-18.37 8.465-14.03-11.586-2.36-13.069s4.27-4.227 6.18-4.593l18.03-6.727c-0.72-7.455-10.14-11.204-16.4-12.902-1.59-0.431-3.22-0.58-4.86-0.608v-0.004zm-0.55 51.16l13.14 10.848-4.21 4.924-0.25-0.207 1.14-1.367-0.63-0.522 0.27-0.226 0.62-0.522-1.04-1.236-0.62 0.519-0.49 0.412-1.57-1.306 0.27-0.223 0.61-0.521-1.04-1.237-0.62 0.52-0.48 0.406-1.57-1.306 0.26-0.219 0.62-0.522-1.04-1.236-0.62 0.521-0.48 0.405-1.57-1.309 0.26-0.215 0.61-0.521-1.04-1.237-0.62 0.522-0.47 0.4-2.19-1.824c-0.81 0.954-0.85 1.016-1.25 1.486l-0.26-0.218c1.42-1.663 2.84-3.326 4.26-4.989zm-7.42 8.678l0.31 0.248c-0.38 0.454-0.39 0.474-1.11 1.323l1.04 0.869-0.21 0.181-0.62 0.522 1.04 1.236 0.62-0.521 0.44-0.368 1.57 1.305-0.21 0.182-0.62 0.521 1.04 1.237 0.62-0.522 0.44-0.369 1.57 1.303-0.22 0.185-0.62 0.522 1.04 1.236 0.62-0.519 0.45-0.374 1.57 1.305-0.22 0.186-0.62 0.521 1.04 1.238 0.62-0.521 0.44-0.375 1.78 1.477 1.19-1.416 0.21 0.169-3.95 4.616-13.13-10.85c1.29-1.516 2.59-3.031 3.88-4.547zm-126.62 106.11c6.37 0 11.533 5.16 11.533 11.53-0.001 6.37-5.164 11.54-11.533 11.54-6.37 0-11.533-5.17-11.534-11.54 0-6.37 5.163-11.53 11.534-11.53z"/>
<path d="m185.35 75.951-5.2051 6.168 0.2793 0.22656 3.1309-3.707-0.25781-0.21094c0.6946-0.81244 1.3892-1.6251 2.084-2.4375l-0.0312-0.03906zm15.291 8.4062-4.1504 4.8535-0.25-0.20313-4.3086 5.1289 0.01 0.0078 1.1855-1.416 0.20899 0.16992 7.3086-8.5371-0.004-0.0039zm1.5371-12.881-0.5039 0.23242 12.631 10.406c0.0949-0.13595 0.18675-0.27719 0.28125-0.41406l-12.408-10.225z" fill-rule="evenodd" fill="#95bddb"/>
<path d="m210.09 91.996-0.0195-0.64453-6.9297-5.709-0.29297 0.35352z" fill-rule="evenodd" fill="#72a7cf"/>
</svg>
